<svg xmlns="http://www.w3.org/2000/svg" viewBox="-120 -60 780 780" role="img" aria-label="CoArchitive">
  <!-- app-icon version of the mark: dark green tile, white bracket and O, tan "9" -->
  <rect x="-120" y="-60" width="780" height="780" rx="170" fill="#1B3A2B" />
  <path d="M170 58H115A50 50 0 0 0 65 108V555A50 50 0 0 0 115 605H170"
        fill="none" stroke="#FFFFFF" stroke-width="60" stroke-linecap="round" />
  <path d="M365 58H420A50 50 0 0 1 470 108V560"
        fill="none" stroke="#C4B08F" stroke-width="60" stroke-linecap="round" />
  <path d="M440 470V490Q440 515 415 515H380Q320 515 320 575V580Q320 640 380 640H440Q500 640 500 580V470Z" fill="#C4B08F" />
  <rect x="365" y="566" width="90" height="28" rx="14" fill="#1B3A2B" />
  <rect x="204" y="177" width="124" height="296" rx="62" fill="none" stroke="#FFFFFF" stroke-width="42" />
  <rect x="262" y="440" width="9" height="60" fill="#1B3A2B" />
</svg>
